<svg width="8" height="12" viewBox="0 0 8 12" fill="none" xmlns="http://www.w3.org/2000/svg">
<path d="M7.35156 7.70313C7.42773 7.75391 7.45312 7.80469 7.45312 7.90625C7.45312 7.98242 7.42773 8.05859 7.35156 8.10938L4 11.4609C3.94922 11.5117 3.89844 11.5625 3.79687 11.5625C3.7207 11.5625 3.64453 11.5117 3.59375 11.4609L0.242187 8.10938C0.191406 8.05859 0.140624 7.98242 0.140624 7.90625C0.140624 7.80469 0.191406 7.75391 0.242187 7.70313L0.724609 7.19531C0.800781 7.11914 0.876952 7.09375 0.953124 7.09375C1.05469 7.09375 1.10547 7.11914 1.15625 7.19531L3.13672 9.25195L3.13672 0.492188C3.13672 0.390625 3.1875 0.314454 3.23828 0.263672C3.28906 0.212891 3.36523 0.1875 3.44141 0.1875L4.15234 0.1875C4.25391 0.1875 4.33008 0.212891 4.38086 0.263672C4.43164 0.314453 4.45703 0.390625 4.45703 0.492188L4.45703 9.25195L6.4375 7.19531C6.48828 7.11914 6.56445 7.09375 6.64062 7.09375C6.74219 7.09375 6.81836 7.11914 6.86914 7.19531L7.35156 7.70313Z" fill="white"/>
</svg>
