<svg width="8" height="11" viewBox="0 0 8 11" fill="none" xmlns="http://www.w3.org/2000/svg">
<path d="M7.05273 7.1875C7.12305 7.23438 7.14648 7.28125 7.14648 7.375C7.14648 7.44531 7.12305 7.51563 7.05273 7.5625L3.95898 10.6563C3.91211 10.7031 3.86523 10.75 3.77148 10.75C3.70117 10.75 3.63086 10.7031 3.58398 10.6563L0.490234 7.5625C0.443359 7.51563 0.396484 7.44531 0.396484 7.375C0.396484 7.28125 0.443359 7.23438 0.490234 7.1875L0.935546 6.71875C1.00586 6.64844 1.07617 6.625 1.14648 6.625C1.24023 6.625 1.28711 6.64844 1.33398 6.71875L3.16211 8.61719L3.16211 0.53125C3.16211 0.4375 3.20898 0.367188 3.25586 0.320313C3.30273 0.273438 3.37305 0.25 3.44336 0.25L4.09961 0.25C4.19336 0.25 4.26367 0.273438 4.31055 0.320313C4.35742 0.367188 4.38086 0.4375 4.38086 0.53125L4.38086 8.61719L6.20898 6.71875C6.25586 6.64844 6.32617 6.625 6.39648 6.625C6.49023 6.625 6.56055 6.64844 6.60742 6.71875L7.05273 7.1875Z" fill="#F90000"/>
</svg>
