<svg width="23" height="22" viewBox="0 0 23 22" fill="none" xmlns="http://www.w3.org/2000/svg">
<path d="M12.7835 13.7009C13.2455 13.8482 13.6049 14.0937 13.9129 14.4866C14.1696 14.8795 14.3237 15.2723 14.3237 15.7143C14.3237 16.3036 14.1183 16.7946 13.7589 17.1875C13.3482 17.5804 12.8862 17.8259 12.3214 17.8259V18.4643C12.3214 18.5625 12.2701 18.6607 12.1674 18.7589C12.0647 18.8571 12.0134 18.8571 11.9107 18.8571H11.0893C10.9866 18.8571 10.8839 18.8571 10.7813 18.7589C10.6786 18.6607 10.6786 18.5625 10.6786 18.4643V17.8259C10.1652 17.8259 9.65179 17.6295 9.24107 17.2857C9.13839 17.2366 9.08705 17.1384 9.08705 17.0402C9.08705 16.942 9.08705 16.7946 9.18973 16.6964L9.8058 16.1562C9.95982 16.058 10.1138 16.0089 10.3192 16.1071C10.4732 16.2054 10.6786 16.2545 10.8839 16.2545H12.2188C12.3214 16.2545 12.4241 16.2054 12.5268 16.1071C12.6295 16.0089 12.6808 15.9107 12.6808 15.7143C12.6808 15.4687 12.5268 15.3214 12.3214 15.2232L10.2165 14.5848C9.70312 14.4866 9.34375 14.2411 9.08705 13.8482C8.77902 13.4554 8.67634 13.0625 8.67634 12.5714C8.67634 12.0312 8.83036 11.5402 9.24107 11.1473C9.60045 10.7545 10.0625 10.5089 10.6786 10.4598V9.82143C10.6786 9.72321 10.6786 9.67411 10.7813 9.57589C10.8839 9.47768 10.9866 9.42857 11.0893 9.42857H11.9107C12.0134 9.42857 12.0647 9.47768 12.1674 9.57589C12.2701 9.67411 12.3214 9.72321 12.3214 9.82143V10.4598C12.8348 10.5089 13.2969 10.7054 13.7589 11C13.8616 11.0982 13.9129 11.1964 13.9129 11.2946C13.9129 11.3929 13.8616 11.4911 13.8103 11.5893L13.1942 12.1295C12.9888 12.2768 12.8348 12.2768 12.6808 12.1786C12.4754 12.0804 12.3214 12.0312 12.1161 12.0312H10.7813C10.6272 12.0312 10.5246 12.0804 10.4219 12.1786C10.3192 12.2768 10.3192 12.4241 10.3192 12.5714C10.3192 12.8661 10.4219 13.0134 10.6786 13.0625L12.7835 13.7009ZM23 7.07143V20.4286C23 20.8705 22.7946 21.2634 22.4866 21.558C22.1786 21.8527 21.7679 22 21.3571 22H1.64286C1.1808 22 0.770089 21.8527 0.462054 21.558C0.154018 21.2634 0 20.8705 0 20.4286V7.07143C0 6.58036 0.102679 6.08929 0.410714 5.59821L2.92634 1.08036C3.02902 0.785714 3.18304 0.491071 3.49107 0.294643C3.79911 0.0982143 4.10714 0 4.46652 0H18.5335C18.8415 0 19.1496 0.0982143 19.4576 0.294643C19.7656 0.491071 19.971 0.785714 20.0737 1.08036L22.5893 5.59821C22.846 6.08929 23 6.58036 23 7.07143ZM12.3214 1.57143V6.28571H21.1518L18.5335 1.57143H12.3214ZM4.46652 1.57143L1.84821 6.28571H10.6786V1.57143H4.46652ZM1.64286 20.4286H21.3571V7.85714H1.64286V20.4286Z" fill="#4880FF"/>
</svg>
