<svg width="28" height="20" viewBox="0 0 28 20" fill="none" xmlns="http://www.w3.org/2000/svg">
<path d="M23.625 8.375C22.6797 8.375 21.8633 8.07422 21.1758 7.38672C20.4883 6.69922 20.1875 5.88281 20.1875 4.9375C20.1875 3.99219 20.4883 3.21875 21.1758 2.53125C21.8633 1.84375 22.6797 1.5 23.625 1.5C24.5703 1.5 25.3438 1.84375 26.0312 2.53125C26.7188 3.21875 27.0625 3.99219 27.0625 4.9375C27.0625 5.88281 26.7188 6.69922 26.0312 7.38672C25.3438 8.07422 24.5703 8.375 23.625 8.375ZM23.625 2.875C23.0234 2.875 22.5508 3.08984 22.1641 3.47656C21.7344 3.90625 21.5625 4.37891 21.5625 4.9375C21.5625 5.53906 21.7344 6.01172 22.1641 6.39844C22.5508 6.82813 23.0234 7 23.625 7C24.1836 7 24.6562 6.82813 25.0859 6.39844C25.4727 6.01172 25.6875 5.53906 25.6875 4.9375C25.6875 4.37891 25.4727 3.90625 25.0859 3.47656C24.6562 3.08984 24.1836 2.875 23.625 2.875ZM14 9.75C13.1406 9.75 12.3242 9.53516 11.5937 9.10547C10.8203 8.67578 10.2617 8.11719 9.83203 7.34375C9.40234 6.61328 9.1875 5.79688 9.1875 4.9375C9.1875 4.07813 9.40234 3.30469 9.83203 2.53125C10.2617 1.80078 10.8203 1.19922 11.5938 0.769531C12.3242 0.339844 13.1406 0.125 14 0.125C14.8594 0.125 15.6328 0.339844 16.4062 0.769531C17.1367 1.19922 17.7383 1.80078 18.168 2.53125C18.5977 3.30469 18.8125 4.07813 18.8125 4.9375C18.8125 5.79688 18.5977 6.61328 18.168 7.34375C17.7383 8.11719 17.1367 8.67578 16.4062 9.10547C15.6328 9.53516 14.8594 9.75 14 9.75ZM14 1.5C13.0547 1.5 12.2383 1.84375 11.5508 2.53125C10.8633 3.21875 10.5625 3.99219 10.5625 4.9375C10.5625 5.88281 10.8633 6.69922 11.5508 7.38672C12.2383 8.07422 13.0547 8.375 14 8.375C14.9453 8.375 15.7187 8.07422 16.4062 7.38672C17.0938 6.69922 17.4375 5.88281 17.4375 4.9375C17.4375 3.99219 17.0938 3.21875 16.4062 2.53125C15.7188 1.84375 14.9453 1.5 14 1.5ZM24.4844 9.75C25.3438 9.75 26.1172 10.0938 26.7617 10.7813C27.4062 11.4688 27.75 12.2422 27.75 13.1875C27.75 13.4023 27.6641 13.5742 27.5352 13.7031C27.4062 13.832 27.2344 13.875 27.0625 13.875C26.8477 13.875 26.6758 13.832 26.5469 13.7031C26.418 13.5742 26.375 13.4023 26.375 13.1875C26.375 12.6289 26.1602 12.1563 25.8164 11.7266C25.4297 11.3398 25 11.125 24.4844 11.125H22.7656C22.5078 11.125 22.293 11.168 22.0781 11.2539C21.7344 10.9102 21.3906 10.6094 21.0039 10.3086C21.5195 9.96484 22.1211 9.75 22.7656 9.75H24.4844ZM4.375 8.375C3.42969 8.375 2.61328 8.07422 1.92578 7.38672C1.23828 6.69922 0.9375 5.88281 0.9375 4.9375C0.9375 3.99219 1.23828 3.21875 1.92578 2.53125C2.61328 1.84375 3.42969 1.5 4.375 1.5C5.32031 1.5 6.09375 1.84375 6.78125 2.53125C7.46875 3.21875 7.8125 3.99219 7.8125 4.9375C7.8125 5.88281 7.46875 6.69922 6.78125 7.38672C6.09375 8.07422 5.32031 8.375 4.375 8.375ZM4.375 2.875C3.77344 2.875 3.30078 3.08984 2.91406 3.47656C2.48437 3.90625 2.3125 4.37891 2.3125 4.9375C2.3125 5.53906 2.48437 6.01172 2.91406 6.39844C3.30078 6.82812 3.77344 7 4.375 7C4.93359 7 5.40625 6.82813 5.83594 6.39844C6.22266 6.01172 6.4375 5.53906 6.4375 4.9375C6.4375 4.37891 6.22266 3.90625 5.83594 3.47656C5.40625 3.08984 4.93359 2.875 4.375 2.875ZM17.4375 10.6094C18.2109 10.6094 18.9844 10.7813 19.6719 11.125C20.3594 11.4688 20.9609 11.9844 21.3906 12.6289C21.9492 13.4883 22.25 14.3906 22.25 15.3789V17.3125C22.25 17.9141 22.0352 18.3867 21.6484 18.7734C21.2187 19.2031 20.7461 19.375 20.1875 19.375L7.8125 19.375C7.21094 19.375 6.73828 19.2031 6.35156 18.7734C5.92187 18.3867 5.75 17.9141 5.75 17.3125V15.3789C5.75 14.3906 6.00781 13.4883 6.60937 12.6289C7.03906 11.9844 7.59766 11.4688 8.28516 11.125C8.97266 10.7813 9.74609 10.6094 10.5625 10.6094C10.9922 10.6094 11.5508 10.6953 12.1523 10.8672C12.7969 11.0391 13.3984 11.125 14 11.125C14.5586 11.125 15.1602 11.0391 15.8477 10.8672C16.4492 10.6953 16.9648 10.6094 17.4375 10.6094ZM20.875 17.3125V15.3789C20.875 14.6914 20.6602 14.0039 20.2734 13.4023C19.9297 12.9727 19.543 12.6289 19.0703 12.3711C18.5547 12.1133 18.0391 11.9844 17.4375 11.9844C17.0938 11.9844 16.6641 12.0703 16.1484 12.1992C15.375 12.4141 14.6875 12.5 14 12.5C13.3125 12.5 12.582 12.4141 11.8516 12.1992C11.3359 12.0703 10.9062 11.9844 10.5625 11.9844C9.96094 11.9844 9.40234 12.1133 8.88672 12.3711C8.37109 12.6289 7.98437 12.9727 7.72656 13.4023C7.29687 14.0039 7.125 14.6914 7.125 15.3789V17.3125C7.125 17.5273 7.16797 17.6992 7.29687 17.8281C7.42578 17.957 7.59766 18 7.8125 18L20.1875 18C20.3594 18 20.5312 17.957 20.6602 17.8281C20.7891 17.6992 20.875 17.5273 20.875 17.3125ZM6.99609 10.3086C6.56641 10.6094 6.22266 10.9102 5.92187 11.2539C5.66406 11.168 5.44922 11.125 5.23437 11.125H3.51562C3 11.125 2.52734 11.3398 2.18359 11.7266C1.79687 12.1562 1.625 12.6289 1.625 13.1875C1.625 13.4023 1.53906 13.5742 1.41016 13.7031C1.28125 13.832 1.10937 13.875 0.9375 13.875C0.722656 13.875 0.550781 13.832 0.421875 13.7031C0.292969 13.5742 0.25 13.4023 0.25 13.1875C0.25 12.2422 0.550781 11.4688 1.19531 10.7812C1.83984 10.0938 2.61328 9.75 3.51562 9.75H5.23437C5.83594 9.75 6.4375 9.96484 6.99609 10.3086Z" fill="white"/>
</svg>
