<svg width="15" height="12" viewBox="0 0 15 12" fill="none" xmlns="http://www.w3.org/2000/svg">
<path opacity="0.77" d="M14.7656 11.0625C14.8242 11.0625 14.8535 11.0918 14.9121 11.1504C14.9707 11.209 15 11.2383 15 11.2969L15 11.7656C15 11.8242 14.9707 11.8828 14.9121 11.9414C14.8535 12 14.8242 12 14.7656 12L0.468747 12C0.322263 12 0.205075 11.9707 0.117185 11.8828C0.0292941 11.7949 -2.74118e-06 11.6777 -2.71557e-06 11.5312L-8.71496e-07 0.984375C-8.61251e-07 0.925781 -8.56129e-07 0.896484 0.0585929 0.837891C0.117187 0.779297 0.17578 0.75 0.234374 0.75L0.703124 0.75C0.761718 0.75 0.791015 0.779297 0.849609 0.837891C0.908202 0.896485 0.937499 0.925781 0.937499 0.984375L0.937497 11.0625L14.7656 11.0625ZM2.87109 6.58008L5.33203 4.14844C5.41992 4.06055 5.53711 4.00195 5.6543 4.00195C5.77148 4.00195 5.88867 4.06055 6.00586 4.14844L8.49609 6.60938L10.8984 4.20703L9.58008 2.88867C9.43359 2.77149 9.375 2.5957 9.375 2.39063C9.375 2.21485 9.43359 2.03906 9.58008 1.89258C9.69726 1.77539 9.87305 1.6875 10.0781 1.6875L13.5937 1.6875C13.7109 1.6875 13.8281 1.7461 13.916 1.83399C14.0039 1.92188 14.0625 2.03906 14.0625 2.15625L14.0625 5.67188C14.0625 5.87696 13.9746 6.05274 13.8281 6.16992C13.6816 6.31641 13.5059 6.375 13.3301 6.375C13.1543 6.375 12.9785 6.31641 12.8613 6.16992L11.5723 4.88086L8.81836 7.60547C8.70117 7.72266 8.58398 7.75195 8.46679 7.75195C8.34961 7.75195 8.23242 7.72266 8.14453 7.60547L5.68359 5.14453L3.54492 7.25391C3.48633 7.3125 3.42773 7.3125 3.36914 7.3125C3.31054 7.3125 3.25195 7.3125 3.22265 7.25391L2.87109 6.90234C2.8125 6.87305 2.8125 6.81445 2.8125 6.75586C2.8125 6.69727 2.8125 6.63867 2.87109 6.58008ZM10.6348 2.625L13.125 5.11524L13.125 2.625L10.6348 2.625Z" fill="white"/>
</svg>
