<svg width="22" height="22" viewBox="0 0 22 22" fill="none" xmlns="http://www.w3.org/2000/svg">
<path d="M12.2277 13.7009C12.6696 13.8482 13.0134 14.0937 13.308 14.4866C13.5536 14.8795 13.7009 15.2723 13.7009 15.7143C13.7009 16.3036 13.5045 16.7946 13.1607 17.1875C12.7679 17.5804 12.3259 17.8259 11.7857 17.8259V18.4643C11.7857 18.5625 11.7366 18.6607 11.6384 18.7589C11.5402 18.8571 11.4911 18.8571 11.3929 18.8571H10.6071C10.5089 18.8571 10.4107 18.8571 10.3125 18.7589C10.2143 18.6607 10.2143 18.5625 10.2143 18.4643V17.8259C9.72321 17.8259 9.23214 17.6295 8.83929 17.2857C8.74107 17.2366 8.69196 17.1384 8.69196 17.0402C8.69196 16.942 8.69196 16.7946 8.79018 16.6964L9.37946 16.1562C9.52678 16.058 9.67411 16.0089 9.87053 16.1071C10.0179 16.2054 10.2143 16.2545 10.4107 16.2545H11.6875C11.7857 16.2545 11.8839 16.2054 11.9821 16.1071C12.0804 16.0089 12.1295 15.9107 12.1295 15.7143C12.1295 15.4687 11.9821 15.3214 11.7857 15.2232L9.77232 14.5848C9.28125 14.4866 8.9375 14.2411 8.69196 13.8482C8.39732 13.4554 8.29911 13.0625 8.29911 12.5714C8.29911 12.0312 8.44643 11.5402 8.83929 11.1473C9.18304 10.7545 9.625 10.5089 10.2143 10.4598V9.82143C10.2143 9.72321 10.2143 9.67411 10.3125 9.57589C10.4107 9.47768 10.5089 9.42857 10.6071 9.42857H11.3929C11.4911 9.42857 11.5402 9.47768 11.6384 9.57589C11.7366 9.67411 11.7857 9.72321 11.7857 9.82143V10.4598C12.2768 10.5089 12.7188 10.7054 13.1607 11C13.2589 11.0982 13.308 11.1964 13.308 11.2946C13.308 11.3929 13.2589 11.4911 13.2098 11.5893L12.6205 12.1295C12.4241 12.2768 12.2768 12.2768 12.1295 12.1786C11.933 12.0804 11.7857 12.0312 11.5893 12.0312H10.3125C10.1652 12.0312 10.067 12.0804 9.96875 12.1786C9.87053 12.2768 9.87053 12.4241 9.87053 12.5714C9.87053 12.8661 9.96875 13.0134 10.2143 13.0625L12.2277 13.7009ZM22 7.07143V20.4286C22 20.8705 21.8036 21.2634 21.5089 21.558C21.2143 21.8527 20.8214 22 20.4286 22H1.57143C1.12946 22 0.736607 21.8527 0.441964 21.558C0.147321 21.2634 0 20.8705 0 20.4286V7.07143C0 6.58036 0.0982143 6.08929 0.392857 5.59821L2.79911 1.08036C2.89732 0.785714 3.04464 0.491071 3.33929 0.294643C3.63393 0.0982143 3.92857 0 4.27232 0H17.7277C18.0223 0 18.317 0.0982143 18.6116 0.294643C18.9062 0.491071 19.1027 0.785714 19.2009 1.08036L21.6071 5.59821C21.8527 6.08929 22 6.58036 22 7.07143ZM11.7857 1.57143V6.28571H20.2321L17.7277 1.57143H11.7857ZM4.27232 1.57143L1.76786 6.28571H10.2143V1.57143H4.27232ZM1.57143 20.4286H20.4286V7.85714H1.57143V20.4286Z" fill="white"/>
</svg>
