<svg width="27" height="27" viewBox="0 0 27 27" fill="none" xmlns="http://www.w3.org/2000/svg">
<path d="M13.5 0C15.8952 0 18.1815 0.653226 20.25 1.85081C22.3186 3.04839 23.9516 4.68145 25.1492 6.75C26.3468 8.81855 27 11.1048 27 13.5C27 15.9496 26.3468 18.1815 25.1492 20.25C23.9516 22.3186 22.3186 24.0061 20.25 25.2036C18.1815 26.4012 15.8952 27 13.5 27C11.0504 27 8.81855 26.4012 6.75 25.2036C4.68145 24.0061 2.99395 22.3186 1.79637 20.25C0.59879 18.1815 0 15.9496 0 13.5C0 11.1048 0.59879 8.81855 1.79637 6.75C2.99395 4.68145 4.68145 3.04839 6.75 1.85081C8.81855 0.653226 11.0504 0 13.5 0ZM13.5 25.2581C15.623 25.2581 17.5827 24.7681 19.379 23.6794C21.1754 22.6452 22.5907 21.2298 23.6794 19.4335C24.7137 17.6371 25.2581 15.6774 25.2581 13.5C25.2581 11.377 24.7137 9.41734 23.6794 7.62097C22.5907 5.8246 21.1754 4.40927 19.379 3.32056C17.5827 2.28629 15.623 1.74194 13.5 1.74194C11.3226 1.74194 9.3629 2.28629 7.56653 3.32056C5.77016 4.40927 4.35484 5.8246 3.32056 7.62097C2.23185 9.41734 1.74194 11.377 1.74194 13.5C1.74194 15.6774 2.23185 17.6371 3.32056 19.4335C4.35484 21.2298 5.77016 22.6452 7.56653 23.6794C9.3629 24.7681 11.3226 25.2581 13.5 25.2581ZM15.6774 13.2278C16.3851 13.4456 16.9839 13.8266 17.4194 14.371C17.8548 14.9698 18.0726 15.623 18.0726 16.3306C18.0726 17.256 17.746 18.0181 17.0927 18.6714C16.4395 19.3246 15.6774 19.5968 14.8065 19.5968H14.371V21.7742C14.371 21.8831 14.3165 21.9919 14.2077 22.1008C14.0988 22.2097 14.0444 22.2097 13.9355 22.2097H13.0645C12.9556 22.2097 12.8468 22.2097 12.7379 22.1008C12.629 21.9919 12.629 21.8831 12.629 21.7742V19.5968H12.3569C11.2681 19.5968 10.3427 19.2702 9.52621 18.6169C9.41734 18.5625 9.3629 18.4536 9.3629 18.3448C9.3629 18.2359 9.3629 18.0726 9.47178 17.9637L10.125 17.3649C10.1794 17.256 10.2883 17.2016 10.3972 17.2016C10.506 17.2016 10.5605 17.256 10.6694 17.3105C11.1593 17.6915 11.7036 17.8548 12.3569 17.8548H14.8065C15.1875 17.8548 15.5141 17.746 15.8407 17.4194C16.1673 17.1472 16.3306 16.7661 16.3306 16.3306C16.3306 16.004 16.2218 15.7319 16.004 15.4597C15.7863 15.1875 15.5685 14.9698 15.2419 14.8609L11.3226 13.7722C10.5605 13.6089 10.0161 13.2278 9.58065 12.629C9.14516 12.0847 8.92742 11.4315 8.92742 10.6694C8.92742 9.79839 9.1996 9.03629 9.85282 8.38307C10.506 7.72984 11.2681 7.40323 12.1935 7.40323H12.629V5.22581C12.629 5.11694 12.629 5.0625 12.7379 4.95363C12.8468 4.84476 12.9556 4.79032 13.0645 4.79032H13.9355C14.0444 4.79032 14.0988 4.84476 14.2077 4.95363C14.3165 5.0625 14.371 5.11694 14.371 5.22581V7.40323H14.6431C15.6774 7.40323 16.6028 7.72984 17.4738 8.38307C17.5827 8.49194 17.6371 8.60081 17.6371 8.70968C17.6371 8.81855 17.5827 8.92742 17.5282 9.03629L16.875 9.63508C16.7661 9.74395 16.7117 9.79839 16.6028 9.79839C16.494 9.79839 16.3851 9.79839 16.3306 9.68952C15.7863 9.3629 15.2419 9.14516 14.6431 9.14516H12.1935C11.7581 9.14516 11.377 9.30847 11.1048 9.58065C10.7782 9.90726 10.6694 10.2339 10.6694 10.6694C10.6694 10.996 10.7238 11.3226 10.9415 11.5948C11.1593 11.8669 11.4315 12.0302 11.7581 12.0847L15.6774 13.2278Z" fill="#4880FF"/>
</svg>
