<svg width="15" height="14" viewBox="0 0 15 14" fill="none" xmlns="http://www.w3.org/2000/svg">
<path opacity="0.77" d="M13.5937 1.75L1.40625 1.75C1.25976 1.75 1.14258 1.80859 1.05469 1.89648C0.966796 1.98438 0.937499 2.10156 0.937499 2.21875L0.937497 12.5313C0.937497 12.6777 0.966794 12.7949 1.05468 12.8828C1.14258 12.9707 1.25976 13 1.40625 13L13.5937 13C13.7109 13 13.8281 12.9707 13.916 12.8828C14.0039 12.7949 14.0625 12.6777 14.0625 12.5313L14.0625 2.21875C14.0625 2.10156 14.0039 1.98438 13.916 1.89649C13.8281 1.8086 13.7109 1.75 13.5937 1.75ZM13.5937 0.812502C13.9746 0.812502 14.2969 0.958987 14.5898 1.22266C14.8535 1.51563 15 1.83789 15 2.21875L15 12.5313C15 12.9414 14.8535 13.2637 14.5898 13.5273C14.2969 13.8203 13.9746 13.9375 13.5937 13.9375L1.40625 13.9375C0.996091 13.9375 0.673825 13.8203 0.410153 13.5273C0.117185 13.2637 -2.78728e-06 12.9414 -2.71557e-06 12.5312L-9.12475e-07 2.21875C-8.45884e-07 1.83789 0.117187 1.51563 0.410156 1.22266C0.673827 0.958984 0.996093 0.8125 1.40625 0.8125L13.5937 0.812502ZM3.75 3.625C3.98437 3.625 4.21875 3.74219 4.39453 3.91797C4.57031 4.09375 4.6875 4.32813 4.6875 4.5625C4.6875 4.82617 4.57031 5.06055 4.39453 5.23633C4.21875 5.41211 3.98437 5.5 3.75 5.5C3.48633 5.5 3.25195 5.41211 3.07617 5.23633C2.90039 5.06055 2.8125 4.82617 2.8125 4.5625C2.8125 4.32813 2.90039 4.09375 3.07617 3.91797C3.25195 3.74219 3.48633 3.625 3.75 3.625ZM3.75 6.4375C3.98437 6.4375 4.21875 6.55469 4.39453 6.73047C4.57031 6.90625 4.6875 7.14063 4.6875 7.375C4.6875 7.63867 4.57031 7.87305 4.39453 8.04883C4.21875 8.22461 3.98437 8.3125 3.75 8.3125C3.48633 8.3125 3.25195 8.22461 3.07617 8.04883C2.90039 7.87305 2.8125 7.63867 2.8125 7.375C2.8125 7.14063 2.90039 6.90625 3.07617 6.73047C3.25195 6.55469 3.48633 6.4375 3.75 6.4375ZM3.75 9.25C3.98437 9.25 4.21875 9.36719 4.39453 9.54297C4.57031 9.71875 4.6875 9.95313 4.6875 10.1875C4.6875 10.4512 4.57031 10.6855 4.39453 10.8613C4.21875 11.0371 3.98437 11.125 3.75 11.125C3.48633 11.125 3.25195 11.0371 3.07617 10.8613C2.90039 10.6855 2.8125 10.4512 2.8125 10.1875C2.8125 9.95313 2.90039 9.71875 3.07617 9.54297C3.25195 9.36719 3.48633 9.25 3.75 9.25ZM12.1875 4.91406C12.1875 4.97266 12.1582 5.00196 12.1289 5.03125C12.0703 5.08985 12.041 5.08985 12.0117 5.08985L5.80078 5.08984C5.74219 5.08984 5.71289 5.08984 5.68359 5.03125C5.625 5.00195 5.625 4.97266 5.625 4.91406L5.625 4.21094C5.625 4.18164 5.625 4.15234 5.68359 4.09375C5.71289 4.06445 5.74219 4.03516 5.80078 4.03516L12.0117 4.03516C12.041 4.03516 12.0703 4.06446 12.1289 4.09375C12.1582 4.15235 12.1875 4.18164 12.1875 4.21094L12.1875 4.91406ZM12.1875 7.72656C12.1875 7.78516 12.1582 7.81446 12.1289 7.84375C12.0703 7.90235 12.041 7.90235 12.0117 7.90235L5.80078 7.90234C5.74219 7.90234 5.71289 7.90234 5.68359 7.84375C5.625 7.81445 5.625 7.78516 5.625 7.72656L5.625 7.02344C5.625 6.99414 5.625 6.96484 5.68359 6.90625C5.71289 6.87695 5.74219 6.84766 5.80078 6.84766L12.0117 6.84766C12.041 6.84766 12.0703 6.87696 12.1289 6.90625C12.1582 6.96485 12.1875 6.99414 12.1875 7.02344L12.1875 7.72656ZM12.1875 10.5391C12.1875 10.5977 12.1582 10.627 12.1289 10.6563C12.0703 10.7148 12.041 10.7148 12.0117 10.7148L5.80078 10.7148C5.74219 10.7148 5.71289 10.7148 5.68359 10.6563C5.625 10.627 5.625 10.5977 5.625 10.5391L5.625 9.83594C5.625 9.80664 5.625 9.77734 5.68359 9.71875C5.71289 9.68945 5.74219 9.66016 5.80078 9.66016L12.0117 9.66016C12.041 9.66016 12.0703 9.68946 12.1289 9.71875C12.1582 9.77735 12.1875 9.80664 12.1875 9.83594L12.1875 10.5391Z" fill="white"/>
</svg>
