<svg width="19" height="14" viewBox="0 0 19 14" fill="none" xmlns="http://www.w3.org/2000/svg">
<path opacity="0.77" d="M14.1875 7.375C13.3965 7.375 12.7227 7.11133 12.1953 6.55469C11.6387 6.02735 11.375 5.35352 11.375 4.5625C11.375 3.80078 11.6387 3.12696 12.1953 2.57031C12.7227 2.04297 13.3965 1.75 14.1875 1.75C14.9492 1.75 15.623 2.04297 16.1797 2.57032C16.707 3.12696 17 3.80078 17 4.5625C17 5.35352 16.707 6.02735 16.1797 6.55469C15.623 7.11133 14.9492 7.375 14.1875 7.375ZM14.1875 2.6875C13.6602 2.6875 13.2207 2.89258 12.8691 3.24414C12.4883 3.625 12.3125 4.06446 12.3125 4.5625C12.3125 5.08985 12.4883 5.5293 12.8691 5.88086C13.2207 6.26172 13.6602 6.4375 14.1875 6.4375C14.6855 6.4375 15.125 6.26172 15.5059 5.88086C15.8574 5.5293 16.0625 5.08985 16.0625 4.5625C16.0625 4.06446 15.8574 3.625 15.5059 3.24414C15.125 2.89258 14.6855 2.6875 14.1875 2.6875ZM5.75 7.375C5.16406 7.375 4.60742 7.22852 4.10937 6.93555C3.58203 6.64258 3.20117 6.26172 2.9082 5.73438C2.61523 5.23633 2.46875 4.67969 2.46875 4.09375C2.46875 3.50781 2.61523 2.98047 2.9082 2.45313C3.20117 1.95508 3.58203 1.54492 4.10937 1.25195C4.60742 0.958985 5.16406 0.812501 5.75 0.812501C6.33594 0.812501 6.86328 0.958986 7.39062 1.25195C7.88867 1.54492 8.29883 1.95508 8.5918 2.45313C8.88476 2.98047 9.03125 3.50781 9.03125 4.09375C9.03125 4.67969 8.88476 5.23633 8.5918 5.73438C8.29883 6.26172 7.88867 6.64258 7.39062 6.93555C6.86328 7.22852 6.33594 7.375 5.75 7.375ZM5.75 1.75C5.10547 1.75 4.54883 1.98438 4.08008 2.45313C3.61133 2.92188 3.40625 3.44922 3.40625 4.09375C3.40625 4.73828 3.61133 5.29492 4.08008 5.76367C4.54883 6.23242 5.10547 6.4375 5.75 6.4375C6.39453 6.4375 6.92187 6.23242 7.39062 5.76367C7.85937 5.29492 8.09375 4.73828 8.09375 4.09375C8.09375 3.44922 7.85937 2.92188 7.39062 2.45313C6.92187 1.98438 6.39453 1.75 5.75 1.75ZM8.09375 7.96094C8.62109 7.96094 9.14844 8.07813 9.61719 8.3125C10.0859 8.54688 10.4961 8.89844 10.7891 9.33789C11.1699 9.92383 11.375 10.5391 11.375 11.2129L11.375 12.5313C11.375 12.9414 11.2285 13.2637 10.9648 13.5273C10.6719 13.8203 10.3496 13.9375 9.96875 13.9375L1.53125 13.9375C1.12109 13.9375 0.798825 13.8203 0.535153 13.5273C0.242185 13.2637 0.124997 12.9414 0.124997 12.5313L0.124998 11.2129C0.124998 10.5391 0.300779 9.92383 0.710935 9.33789C1.0039 8.89844 1.38476 8.54688 1.85351 8.3125C2.32226 8.07813 2.84961 7.96094 3.40625 7.96094C3.69922 7.96094 4.08008 8.01953 4.49023 8.13672C4.92969 8.25391 5.33984 8.3125 5.75 8.3125C6.13086 8.3125 6.54101 8.25391 7.00976 8.13672C7.41992 8.01953 7.77148 7.96094 8.09375 7.96094ZM10.4375 12.5313L10.4375 11.2129C10.4375 10.7441 10.291 10.2754 10.0273 9.86524C9.79297 9.57227 9.52929 9.33789 9.20703 9.16211C8.85547 8.98633 8.5039 8.89844 8.09375 8.89844C7.85937 8.89844 7.5664 8.95703 7.21484 9.04492C6.6875 9.19141 6.21875 9.25 5.75 9.25C5.28125 9.25 4.7832 9.19141 4.28515 9.04492C3.93359 8.95703 3.64062 8.89844 3.40625 8.89844C2.99609 8.89844 2.61523 8.98633 2.26367 9.16211C1.91211 9.33789 1.64844 9.57227 1.47265 9.86523C1.17969 10.2754 1.0625 10.7441 1.0625 11.2129L1.0625 12.5313C1.0625 12.6777 1.09179 12.7949 1.17968 12.8828C1.26758 12.9707 1.38476 13 1.53125 13L9.96875 13C10.0859 13 10.2031 12.9707 10.291 12.8828C10.3789 12.7949 10.4375 12.6777 10.4375 12.5313ZM18.4062 9.16211C18.6992 9.63086 18.875 10.1582 18.875 10.7441L18.875 11.8281C18.875 12.1797 18.7578 12.4434 18.5234 12.6777C18.2891 12.9121 18.0254 13 17.7031 13L12.2539 13C12.2832 12.8535 12.3125 12.5898 12.3125 12.2383L12.3125 12.0625L17.7031 12.0625C17.7617 12.0625 17.791 12.0625 17.8496 12.0039C17.9082 11.9453 17.9375 11.8867 17.9375 11.8281L17.9375 10.7441C17.9375 10.3633 17.8203 10.0117 17.6152 9.68946C17.4395 9.45508 17.2344 9.2793 17 9.16211C16.7363 9.04492 16.4434 8.95703 16.1504 8.95703C15.9453 8.95703 15.7109 9.01563 15.4473 9.07422C15.0078 9.19141 14.5977 9.25 14.1875 9.25C13.7773 9.25 13.3379 9.19141 12.9277 9.07422C12.6348 9.01563 12.4297 8.95703 12.2539 8.95703C12.0781 8.95703 11.873 8.98633 11.6973 9.04492L11.6973 8.98633C11.5508 8.78125 11.3457 8.54688 11.1113 8.25391C11.4629 8.10742 11.8437 8.01953 12.2246 8.01953C12.4883 8.01953 12.8105 8.07813 13.1621 8.16602C13.5137 8.28321 13.8359 8.3125 14.1875 8.3125C14.5098 8.3125 14.8613 8.28321 15.2129 8.16602C15.5645 8.07813 15.8574 8.01953 16.1504 8.01953C16.5898 8.01953 17 8.13672 17.4102 8.3125C17.8203 8.51758 18.1426 8.81055 18.4062 9.16211Z" fill="white"/>
</svg>
