<svg width="15" height="15" viewBox="0 0 15 15" fill="none" xmlns="http://www.w3.org/2000/svg">
<path opacity="0.77" d="M14.1504 8.63477C14.2676 8.72266 14.3848 8.83985 14.4434 8.98633C14.502 9.16211 14.502 9.3086 14.4727 9.45508C14.1211 10.5684 13.5645 11.5352 12.7734 12.3555C12.6562 12.4727 12.5098 12.5605 12.3633 12.5898C12.1875 12.6191 12.041 12.5898 11.9238 12.502L10.957 11.9453C10.5762 12.2383 10.166 12.4727 9.72656 12.6484L9.72656 13.7617C9.72656 13.9375 9.66797 14.084 9.58008 14.2012C9.46289 14.3184 9.3457 14.4063 9.16992 14.4355C8.05664 14.7285 6.94336 14.7285 5.83008 14.4355C5.65429 14.4063 5.50781 14.3184 5.41992 14.2012C5.30273 14.084 5.27343 13.9375 5.27343 13.7617L5.27343 12.6484C4.80468 12.4727 4.39453 12.2383 4.04297 11.9453L3.07617 12.502C2.92968 12.5898 2.7832 12.6191 2.63672 12.5898C2.46093 12.5605 2.34375 12.4727 2.22656 12.3555C1.40625 11.5352 0.849607 10.5684 0.527342 9.45508C0.468748 9.30859 0.498045 9.16211 0.556639 8.98633C0.615232 8.83984 0.703123 8.72266 0.849607 8.63477L1.8164 8.07813C1.75781 7.60938 1.75781 7.14063 1.8164 6.67188L0.849608 6.11523C0.703123 6.05664 0.615233 5.93945 0.556639 5.76367C0.498045 5.61719 0.468749 5.4707 0.527342 5.29492C0.849608 4.21094 1.40625 3.24414 2.22656 2.39453C2.34375 2.27734 2.46094 2.21875 2.63672 2.18945C2.7832 2.16016 2.92969 2.18945 3.07617 2.24805L4.04297 2.80469C4.39453 2.51172 4.80469 2.27734 5.27344 2.10156L5.27344 0.988282C5.27344 0.841798 5.30273 0.695313 5.41992 0.578126C5.50781 0.460938 5.6543 0.373048 5.83008 0.314454C6.94336 0.0507825 8.05664 0.0507827 9.16992 0.314455C9.3457 0.373049 9.46289 0.460939 9.58008 0.578127C9.66797 0.695314 9.72656 0.841799 9.72656 0.988283L9.72656 2.10156C10.166 2.27735 10.5762 2.51172 10.957 2.80469L11.9238 2.24805C12.041 2.18946 12.1875 2.16016 12.3633 2.18946C12.5098 2.21875 12.6562 2.27735 12.7734 2.39453C13.5645 3.24414 14.1211 4.21094 14.4727 5.29492C14.502 5.47071 14.502 5.61719 14.4434 5.76367C14.3848 5.93946 14.2676 6.05664 14.1504 6.11524L13.1836 6.67188C13.2422 7.14063 13.2422 7.60938 13.1836 8.07813L14.1504 8.63477ZM12.2168 11.5938C12.8027 10.9492 13.2129 10.1875 13.5059 9.36719L12.1582 8.57617C12.2461 8.04883 12.3047 7.66797 12.3047 7.375C12.3047 7.11133 12.2461 6.70117 12.1582 6.17383L13.5059 5.38281C13.2129 4.5625 12.8027 3.83008 12.2168 3.15625L10.8691 3.94727C10.459 3.5957 10.1074 3.36133 9.87305 3.21485C9.63867 3.09766 9.25781 2.92188 8.78906 2.7461L8.78906 1.16406C7.91016 0.988283 7.06055 0.988282 6.21094 1.16406L6.21094 2.74609C5.71289 2.92188 5.33203 3.09766 5.09766 3.21484C4.86328 3.36133 4.54101 3.5957 4.13086 3.94727L2.7832 3.15625C2.19726 3.83008 1.75781 4.5625 1.49414 5.38281L2.8418 6.17383C2.72461 6.70117 2.69531 7.11133 2.69531 7.375C2.69531 7.66797 2.72461 8.04883 2.84179 8.57617L1.49414 9.36719C1.75781 10.1875 2.19726 10.9492 2.7832 11.5938L4.13086 10.8027C4.54101 11.1543 4.86328 11.418 5.09765 11.5352C5.33203 11.6816 5.71289 11.8281 6.21093 12.0039L6.21093 13.5859C7.06054 13.7617 7.91015 13.7617 8.78906 13.5859L8.78906 12.0039C9.25781 11.8281 9.63867 11.6816 9.87304 11.5352C10.1074 11.3887 10.459 11.1543 10.8691 10.8027L12.2168 11.5938ZM7.5 4.5625C8.26172 4.5625 8.93555 4.85547 9.49219 5.38281C10.0195 5.93945 10.3125 6.61328 10.3125 7.375C10.3125 8.16602 10.0195 8.83985 9.49219 9.36719C8.93554 9.92383 8.26172 10.1875 7.5 10.1875C6.70898 10.1875 6.03515 9.92383 5.50781 9.36719C4.95117 8.83984 4.6875 8.16602 4.6875 7.375C4.6875 6.61328 4.95117 5.93945 5.50781 5.38281C6.03515 4.85547 6.70898 4.5625 7.5 4.5625ZM7.5 9.25C7.99804 9.25 8.4375 9.07422 8.81836 8.69336C9.16992 8.3418 9.375 7.90235 9.375 7.375C9.375 6.87695 9.16992 6.4375 8.81836 6.05664C8.4375 5.70508 7.99805 5.5 7.5 5.5C6.97265 5.5 6.5332 5.70508 6.18164 6.05664C5.80078 6.4375 5.625 6.87695 5.625 7.375C5.625 7.90234 5.80078 8.3418 6.18164 8.69336C6.5332 9.07422 6.97265 9.25 7.5 9.25Z" fill="white"/>
</svg>
