<svg width="15" height="16" viewBox="0 0 15 16" fill="none" xmlns="http://www.w3.org/2000/svg">
<path opacity="0.77" d="M14.9414 6.29492C14.9707 6.44141 15 6.58789 15 6.73438L15 14.4688C15 14.8789 14.8535 15.2012 14.5898 15.4648C14.2969 15.7578 13.9746 15.875 13.5937 15.875L1.40625 15.875C0.996091 15.875 0.673825 15.7578 0.410153 15.4648C0.117184 15.2012 -2.9512e-06 14.8789 -2.87949e-06 14.4688L-1.52717e-06 6.73438C-1.50155e-06 6.58789 0.0292954 6.44141 0.0878892 6.29492L1.55273 1.8418C1.64062 1.54883 1.81641 1.31445 2.05078 1.13867C2.28516 0.962891 2.57812 0.875 2.90039 0.875001L12.0996 0.875002C12.3926 0.875002 12.6855 0.962893 12.9199 1.13867C13.1543 1.31446 13.3301 1.54883 13.4473 1.8418L14.9414 6.29492ZM0.937498 6.73438L7.03125 6.73438L7.03125 1.8125L2.90039 1.8125C2.7832 1.8125 2.66601 1.8418 2.60742 1.90039C2.51953 1.95898 2.46094 2.04688 2.43164 2.13477L0.966795 6.58789C0.937498 6.64648 0.937498 6.67578 0.937498 6.73438ZM14.0625 14.4688L14.0625 7.67188L0.937498 7.67188L0.937497 14.4688C0.937497 14.6152 0.966794 14.7324 1.05468 14.8203C1.14258 14.9082 1.25976 14.9375 1.40625 14.9375L13.5937 14.9375C13.7109 14.9375 13.8281 14.9082 13.916 14.8203C14.0039 14.7324 14.0625 14.6152 14.0625 14.4688ZM14.0625 6.73438C14.0625 6.67578 14.0332 6.64649 14.0332 6.58789L12.5684 2.13477C12.5098 2.04688 12.4512 1.95899 12.3926 1.90039C12.3047 1.8418 12.2168 1.8125 12.0996 1.8125L7.96875 1.8125L7.96875 6.73438L14.0625 6.73438Z" fill="white"/>
</svg>
