<svg width="17" height="16" viewBox="0 0 17 16" fill="none" xmlns="http://www.w3.org/2000/svg">
<path opacity="0.77" d="M16.2344 2.75C16.4395 2.75 16.6152 2.83789 16.7617 3.01367C16.9082 3.18946 16.9668 3.39453 16.9082 3.59961L15.6484 9.69336C15.5898 9.86914 15.502 9.98633 15.3848 10.1035C15.2676 10.2207 15.1211 10.25 14.9746 10.25L5.24804 10.25L5.59961 12.125L14.2715 12.125C14.4473 12.125 14.5937 12.1836 14.7109 12.2715C14.8281 12.3887 14.916 12.5059 14.9746 12.6523C15.3262 13.0332 15.5312 13.4727 15.5312 14C15.5312 14.5273 15.3262 14.9961 14.9746 15.3477C14.623 15.6992 14.1836 15.875 13.6562 15.875C13.1289 15.875 12.6602 15.6992 12.3086 15.3477C11.957 14.9961 11.7812 14.5273 11.7812 14C11.7812 13.6777 11.8691 13.3555 12.0449 13.0625L7.76758 13.0625C7.94336 13.3555 8.03125 13.6777 8.03125 14C8.03125 14.5273 7.82617 14.9961 7.47461 15.3477C7.12304 15.6992 6.68359 15.875 6.15625 15.875C5.6289 15.875 5.16015 15.6992 4.80859 15.3477C4.45703 14.9961 4.28125 14.5566 4.28125 14.0293C4.28125 13.5313 4.42773 13.0918 4.77929 12.7402L2.72851 1.8125L0.414062 1.8125C0.296874 1.8125 0.208984 1.7832 0.15039 1.72461C0.0917962 1.66602 0.0624994 1.57813 0.0624994 1.46094L0.0624994 1.22656C0.0624995 1.13867 0.0917963 1.05078 0.15039 0.992188C0.208984 0.933594 0.296874 0.875 0.414062 0.875L2.9043 0.875001C3.08008 0.875001 3.22656 0.933594 3.34375 1.05078C3.46094 1.16797 3.54883 1.28516 3.60742 1.46094L3.8418 2.75L16.2344 2.75ZM7.09375 14C7.09375 13.7656 6.97656 13.5313 6.80078 13.3555C6.625 13.1797 6.39062 13.0625 6.15625 13.0625C5.89258 13.0625 5.6582 13.1797 5.48242 13.3555C5.30664 13.5313 5.21875 13.7656 5.21875 14C5.21875 14.2637 5.30664 14.498 5.48242 14.6738C5.6582 14.8496 5.89258 14.9375 6.15625 14.9375C6.39062 14.9375 6.625 14.8496 6.80078 14.6738C6.97656 14.498 7.09375 14.2637 7.09375 14ZM13.6562 14.9375C13.8906 14.9375 14.125 14.8496 14.3008 14.6738C14.4766 14.498 14.5937 14.2637 14.5937 14C14.5937 13.7656 14.4766 13.5313 14.3008 13.3555C14.125 13.1797 13.8906 13.0625 13.6562 13.0625C13.3926 13.0625 13.1582 13.1797 12.9824 13.3555C12.8066 13.5313 12.7187 13.7656 12.7187 14C12.7187 14.2637 12.8066 14.498 12.9824 14.6738C13.1582 14.8496 13.3926 14.9375 13.6562 14.9375ZM14.7695 9.3125L15.9414 3.6875L4.01758 3.6875L5.07226 9.3125L14.7695 9.3125Z" fill="white"/>
</svg>
