<svg width="18" height="12" viewBox="0 0 18 12" fill="none" xmlns="http://www.w3.org/2000/svg">
<path d="M6.16309 8.38867C6.16309 8.0013 6.02637 7.70508 5.75293 7.5C5.47949 7.29036 4.9873 7.07161 4.27637 6.84375C3.56543 6.61133 3.0026 6.38346 2.58789 6.16016C1.45768 5.54948 0.892578 4.72689 0.892578 3.69238C0.892578 3.15462 1.04297 2.67611 1.34375 2.25684C1.64909 1.83301 2.08431 1.5026 2.64941 1.26562C3.21908 1.02865 3.8571 0.910156 4.56348 0.910156C5.27441 0.910156 5.90788 1.04004 6.46387 1.2998C7.01986 1.55501 7.45052 1.91732 7.75586 2.38672C8.06576 2.85612 8.2207 3.38932 8.2207 3.98633H6.16992C6.16992 3.5306 6.02637 3.17741 5.73926 2.92676C5.45215 2.67155 5.04883 2.54395 4.5293 2.54395C4.02799 2.54395 3.63835 2.65104 3.36035 2.86523C3.08236 3.07487 2.94336 3.35286 2.94336 3.69922C2.94336 4.02279 3.10514 4.29395 3.42871 4.5127C3.75684 4.73145 4.23763 4.93652 4.87109 5.12793C6.03776 5.47884 6.8877 5.91406 7.4209 6.43359C7.9541 6.95312 8.2207 7.60026 8.2207 8.375C8.2207 9.23633 7.89486 9.91309 7.24316 10.4053C6.59147 10.8929 5.71419 11.1367 4.61133 11.1367C3.8457 11.1367 3.14844 10.9977 2.51953 10.7197C1.89062 10.4372 1.40983 10.0521 1.07715 9.56445C0.749023 9.07682 0.584961 8.51172 0.584961 7.86914H2.64258C2.64258 8.96745 3.29883 9.5166 4.61133 9.5166C5.09896 9.5166 5.47949 9.41862 5.75293 9.22266C6.02637 9.02214 6.16309 8.74414 6.16309 8.38867ZM17.4287 7.68457C17.3512 8.75553 16.9548 9.59863 16.2393 10.2139C15.5283 10.8291 14.5895 11.1367 13.4229 11.1367C12.1468 11.1367 11.1419 10.7083 10.4082 9.85156C9.67904 8.99023 9.31445 7.8099 9.31445 6.31055V5.70215C9.31445 4.74512 9.48307 3.90202 9.82031 3.17285C10.1576 2.44368 10.6383 1.88542 11.2627 1.49805C11.8916 1.10612 12.6208 0.910156 13.4502 0.910156C14.5986 0.910156 15.5238 1.21777 16.2256 1.83301C16.9274 2.44824 17.333 3.31185 17.4424 4.42383H15.3916C15.3415 3.78125 15.1615 3.31641 14.8516 3.0293C14.5462 2.73763 14.0791 2.5918 13.4502 2.5918C12.7666 2.5918 12.2539 2.83789 11.9121 3.33008C11.5749 3.81771 11.4017 4.5765 11.3926 5.60645V6.3584C11.3926 7.43392 11.5544 8.22005 11.8779 8.7168C12.2061 9.21354 12.721 9.46191 13.4229 9.46191C14.0563 9.46191 14.528 9.31836 14.8379 9.03125C15.1523 8.73958 15.3324 8.29069 15.3779 7.68457H17.4287Z" fill="white"/>
</svg>
