<svg width="27" height="21" viewBox="0 0 27 21" fill="none" xmlns="http://www.w3.org/2000/svg">
<path d="M24.4688 21C25.1543 21 25.7344 20.7891 26.2617 20.2617C26.7363 19.7871 27 19.207 27 18.4688V3.28125C27 2.5957 26.7363 2.01562 26.2617 1.48828C25.7344 1.01367 25.1543 0.75 24.4688 0.75H2.53125C1.79297 0.75 1.21289 1.01367 0.738281 1.48828C0.210938 2.01562 0 2.5957 0 3.28125V18.4688C0 19.207 0.210938 19.7871 0.738281 20.2617C1.21289 20.7891 1.79297 21 2.53125 21H24.4688ZM5.90625 3.70312C6.69727 3.70312 7.38281 4.01953 7.96289 4.59961C8.54297 5.17969 8.85938 5.86523 8.85938 6.65625C8.85938 7.5 8.54297 8.18555 7.96289 8.76562C7.38281 9.3457 6.69727 9.60938 5.90625 9.60938C5.0625 9.60938 4.37695 9.3457 3.79688 8.76562C3.2168 8.18555 2.95312 7.5 2.95312 6.65625C2.95312 5.86523 3.2168 5.17969 3.79688 4.59961C4.37695 4.01953 5.0625 3.70312 5.90625 3.70312ZM3.375 17.625V15.0938L7.17188 11.2969C7.27734 11.1914 7.38281 11.1387 7.59375 11.1387C7.75195 11.1387 7.91016 11.1914 8.01562 11.2969L10.9688 14.25L18.1406 7.07812C18.2461 6.97266 18.3516 6.91992 18.5625 6.91992C18.7207 6.91992 18.8789 6.97266 18.9844 7.07812L23.625 11.7188V17.625H3.375Z" fill="#C8CDD6"/>
</svg>
