<svg width="12" height="12" viewBox="0 0 12 12" fill="none" xmlns="http://www.w3.org/2000/svg">
<path d="M5.91406 0.546875C6.85937 0.546875 7.76172 0.804688 8.57812 1.27734C9.39453 1.75 10.0391 2.39453 10.5117 3.21094C10.9844 4.02734 11.2422 4.92969 11.2422 5.875C11.2422 6.8418 10.9844 7.72266 10.5117 8.53906C10.0391 9.35547 9.39453 10.0215 8.57812 10.4941C7.76172 10.9668 6.85937 11.2031 5.91406 11.2031C4.94727 11.2031 4.06641 10.9668 3.25 10.4941C2.43359 10.0215 1.76758 9.35547 1.29492 8.53906C0.822266 7.72266 0.585937 6.8418 0.585937 5.875C0.585937 4.92969 0.822266 4.02734 1.29492 3.21094C1.76758 2.39453 2.43359 1.75 3.25 1.27734C4.06641 0.804688 4.94727 0.546875 5.91406 0.546875ZM5.91406 10.1719C6.6875 10.1719 7.39648 9.97852 8.0625 9.5918C8.70703 9.20508 9.24414 8.68945 9.63086 8.02344C10.0176 7.37891 10.2109 6.64844 10.2109 5.875C10.2109 5.10156 10.0176 4.39258 9.63086 3.72656C9.24414 3.08203 8.70703 2.54492 8.0625 2.1582C7.39648 1.77148 6.6875 1.57813 5.91406 1.57813C5.14062 1.57813 4.41016 1.77148 3.76562 2.1582C3.09961 2.54492 2.58398 3.08203 2.19727 3.72656C1.81055 4.39258 1.61719 5.10156 1.61719 5.875C1.61719 6.64844 1.81055 7.37891 2.19727 8.02344C2.58398 8.68945 3.09961 9.20508 3.76562 9.5918C4.41016 9.97852 5.14062 10.1719 5.91406 10.1719ZM8.21289 4.69336C8.21289 4.34961 8.10547 4.02734 7.89062 3.72656C7.67578 3.44727 7.41797 3.21094 7.07422 3.03906C6.73047 2.86719 6.38672 2.78125 6.04297 2.78125C5.54883 2.78125 5.14062 2.88867 4.79687 3.08203C4.45312 3.27539 4.13086 3.55469 3.87305 3.94141C3.83008 4.00586 3.83008 4.07031 3.83008 4.13477C3.83008 4.2207 3.87305 4.26367 3.9375 4.30664L4.53906 4.75781C4.58203 4.80078 4.64648 4.82227 4.71094 4.80078C4.77539 4.80078 4.83984 4.75781 4.88281 4.71484C5.05469 4.47852 5.22656 4.30664 5.35547 4.2207C5.50586 4.13477 5.69922 4.07031 5.91406 4.07031C6.12891 4.07031 6.34375 4.13477 6.51562 4.24219C6.6875 4.37109 6.79492 4.5 6.79492 4.67188C6.79492 4.80078 6.73047 4.92969 6.64453 5.01562C6.55859 5.10156 6.4082 5.1875 6.19336 5.31641L6.15039 5.33789C5.84961 5.50977 5.63477 5.66016 5.50586 5.78906C5.26953 6.02539 5.16211 6.30469 5.16211 6.62695V6.82031C5.16211 6.90625 5.18359 6.9707 5.22656 7.01367C5.26953 7.05664 5.33398 7.07812 5.41992 7.07812H6.4082C6.47266 7.07812 6.53711 7.05664 6.58008 7.01367C6.62305 6.9707 6.66602 6.90625 6.66602 6.82031V6.69141C6.66602 6.60547 6.70898 6.51953 6.81641 6.43359C6.85937 6.39063 6.98828 6.30469 7.16016 6.19727C7.48242 6.02539 7.71875 5.85352 7.86914 5.68164C8.08398 5.42383 8.21289 5.08008 8.21289 4.69336ZM6.81641 8.28125C6.81641 8.04492 6.70898 7.83008 6.53711 7.6582C6.36523 7.48633 6.15039 7.37891 5.91406 7.37891C5.65625 7.37891 5.44141 7.48633 5.26953 7.6582C5.09766 7.83008 5.01172 8.04492 5.01172 8.28125C5.01172 8.53906 5.09766 8.75391 5.26953 8.92578C5.44141 9.09766 5.65625 9.18359 5.91406 9.18359C6.15039 9.18359 6.36523 9.09766 6.53711 8.92578C6.70898 8.75391 6.81641 8.53906 6.81641 8.28125Z" fill="white"/>
</svg>
