<svg width="12" height="12" viewBox="0 0 12 12" fill="none" xmlns="http://www.w3.org/2000/svg">
<path d="M5.87891 0.546875C6.82422 0.546875 7.72656 0.804688 8.54297 1.27734C9.35938 1.75 10.0039 2.39453 10.4766 3.21094C10.9492 4.02734 11.207 4.92969 11.207 5.875C11.207 6.8418 10.9492 7.72266 10.4766 8.53906C10.0039 9.35547 9.35937 10.0215 8.54297 10.4941C7.72656 10.9668 6.82422 11.2031 5.87891 11.2031C4.91211 11.2031 4.03125 10.9668 3.21484 10.4941C2.39844 10.0215 1.73242 9.35547 1.25977 8.53906C0.787109 7.72266 0.550781 6.8418 0.550781 5.875C0.550781 4.92969 0.787109 4.02734 1.25977 3.21094C1.73242 2.39453 2.39844 1.75 3.21484 1.27734C4.03125 0.804688 4.91211 0.546875 5.87891 0.546875ZM5.87891 10.1719C6.65234 10.1719 7.36133 9.97852 8.02734 9.5918C8.67187 9.20508 9.20898 8.68945 9.5957 8.02344C9.98242 7.37891 10.1758 6.64844 10.1758 5.875C10.1758 5.10156 9.98242 4.39258 9.5957 3.72656C9.20898 3.08203 8.67188 2.54492 8.02734 2.1582C7.36133 1.77148 6.65234 1.57813 5.87891 1.57813C5.10547 1.57813 4.375 1.77148 3.73047 2.1582C3.06445 2.54492 2.54883 3.08203 2.16211 3.72656C1.77539 4.39258 1.58203 5.10156 1.58203 5.875C1.58203 6.64844 1.77539 7.37891 2.16211 8.02344C2.54883 8.68945 3.06445 9.20508 3.73047 9.5918C4.375 9.97852 5.10547 10.1719 5.87891 10.1719ZM8.17773 4.69336C8.17773 4.34961 8.07031 4.02734 7.85547 3.72656C7.64062 3.44727 7.38281 3.21094 7.03906 3.03906C6.69531 2.86719 6.35156 2.78125 6.00781 2.78125C5.51367 2.78125 5.10547 2.88867 4.76172 3.08203C4.41797 3.27539 4.0957 3.55469 3.83789 3.94141C3.79492 4.00586 3.79492 4.07031 3.79492 4.13477C3.79492 4.2207 3.83789 4.26367 3.90234 4.30664L4.50391 4.75781C4.54687 4.80078 4.61133 4.82227 4.67578 4.80078C4.74023 4.80078 4.80469 4.75781 4.84766 4.71484C5.01953 4.47852 5.19141 4.30664 5.32031 4.2207C5.4707 4.13477 5.66406 4.07031 5.87891 4.07031C6.09375 4.07031 6.30859 4.13477 6.48047 4.24219C6.65234 4.37109 6.75977 4.5 6.75977 4.67188C6.75977 4.80078 6.69531 4.92969 6.60937 5.01562C6.52344 5.10156 6.37305 5.1875 6.1582 5.31641L6.11523 5.33789C5.81445 5.50977 5.59961 5.66016 5.4707 5.78906C5.23437 6.02539 5.12695 6.30469 5.12695 6.62695V6.82031C5.12695 6.90625 5.14844 6.9707 5.19141 7.01367C5.23437 7.05664 5.29883 7.07812 5.38477 7.07812H6.37305C6.4375 7.07812 6.50195 7.05664 6.54492 7.01367C6.58789 6.9707 6.63086 6.90625 6.63086 6.82031V6.69141C6.63086 6.60547 6.67383 6.51953 6.78125 6.43359C6.82422 6.39063 6.95312 6.30469 7.125 6.19727C7.44727 6.02539 7.68359 5.85352 7.83398 5.68164C8.04883 5.42383 8.17773 5.08008 8.17773 4.69336ZM6.78125 8.28125C6.78125 8.04492 6.67383 7.83008 6.50195 7.6582C6.33008 7.48633 6.11523 7.37891 5.87891 7.37891C5.62109 7.37891 5.40625 7.48633 5.23437 7.6582C5.0625 7.83008 4.97656 8.04492 4.97656 8.28125C4.97656 8.53906 5.0625 8.75391 5.23437 8.92578C5.40625 9.09766 5.62109 9.18359 5.87891 9.18359C6.11523 9.18359 6.33008 9.09766 6.50195 8.92578C6.67383 8.75391 6.78125 8.53906 6.78125 8.28125Z" fill="#4880FF"/>
</svg>
