<svg width="22" height="17" viewBox="0 0 22 17" fill="none" xmlns="http://www.w3.org/2000/svg">
<path d="M21.6172 4.3125C21.6875 4.48828 21.7227 4.66406 21.6523 4.80469C21.582 4.98047 21.4414 5.08594 21.3008 5.12109L19.543 5.64844V13.0664C19.543 13.3477 19.4375 13.5586 19.2969 13.7695C19.1562 13.9805 18.9453 14.0859 18.7344 14.1562L11.5273 16.0547C11.1758 16.1602 10.8242 16.1602 10.4727 16.0547L3.26562 14.1562C3.01953 14.0859 2.80859 13.9805 2.66797 13.7695C2.52734 13.5586 2.45703 13.3477 2.45703 13.0664V5.64844L0.699219 5.12109C0.523438 5.08594 0.417969 4.98047 0.347656 4.80469C0.277344 4.66406 0.277344 4.48828 0.382812 4.3125L2.07031 0.691406C2.17578 0.480469 2.35156 0.375 2.5625 0.375L11 1.5L19.4375 0.375C19.6484 0.375 19.7891 0.480469 19.9297 0.691406L21.6172 4.3125ZM2.87891 1.53516L1.61328 4.20703L7.23828 5.89453L9.24219 2.41406L2.87891 1.53516ZM3.51172 5.96484V13.0664L10.4727 14.8945V2.44922L7.94141 6.84375C7.80078 7.05469 7.66016 7.125 7.48438 7.125H7.44922C7.37891 7.125 6.78125 6.94922 5.58594 6.59766C4.77734 6.35156 4.07422 6.14062 3.51172 5.96484ZM18.4883 13.0664V5.96484L16.0273 6.70312C15.043 6.98438 14.5508 7.125 14.5508 7.125H14.5156C14.3047 7.125 14.1641 7.05469 14.0586 6.84375L11.5273 2.41406V14.8945L18.4883 13.0664ZM14.7617 5.89453L20.3867 4.20703L19.1211 1.53516L12.7578 2.37891L14.7617 5.89453Z" fill="white"/>
</svg>
