<svg width="9" height="12" viewBox="0 0 9 12" fill="none" xmlns="http://www.w3.org/2000/svg">
<path d="M1.03516 4.29688C0.958984 4.24609 0.933594 4.19531 0.933594 4.09375C0.933594 4.01758 0.958984 3.94141 1.03516 3.89062L4.38672 0.539062C4.4375 0.488281 4.48828 0.4375 4.58984 0.4375C4.66602 0.4375 4.74219 0.488281 4.79297 0.539062L8.14453 3.89062C8.19531 3.94141 8.24609 4.01758 8.24609 4.09375C8.24609 4.19531 8.19531 4.24609 8.14453 4.29688L7.66211 4.80469C7.58594 4.88086 7.50977 4.90625 7.43359 4.90625C7.33203 4.90625 7.28125 4.88086 7.23047 4.80469L5.25 2.74805V11.5078C5.25 11.6094 5.19922 11.6855 5.14844 11.7363C5.09766 11.7871 5.02148 11.8125 4.94531 11.8125H4.23438C4.13281 11.8125 4.05664 11.7871 4.00586 11.7363C3.95508 11.6855 3.92969 11.6094 3.92969 11.5078V2.74805L1.94922 4.80469C1.89844 4.88086 1.82227 4.90625 1.74609 4.90625C1.64453 4.90625 1.56836 4.88086 1.51758 4.80469L1.03516 4.29688Z" fill="white"/>
</svg>
