<svg width="8" height="12" viewBox="0 0 8 12" fill="none" xmlns="http://www.w3.org/2000/svg">
<path d="M0.166016 4.29688C0.0898438 4.24609 0.0644531 4.19531 0.0644531 4.09375C0.0644531 4.01758 0.0898438 3.94141 0.166016 3.89062L3.51758 0.539062C3.56836 0.488281 3.61914 0.4375 3.7207 0.4375C3.79688 0.4375 3.87305 0.488281 3.92383 0.539062L7.27539 3.89062C7.32617 3.94141 7.37695 4.01758 7.37695 4.09375C7.37695 4.19531 7.32617 4.24609 7.27539 4.29688L6.79297 4.80469C6.7168 4.88086 6.64062 4.90625 6.56445 4.90625C6.46289 4.90625 6.41211 4.88086 6.36133 4.80469L4.38086 2.74805V11.5078C4.38086 11.6094 4.33008 11.6855 4.2793 11.7363C4.22852 11.7871 4.15234 11.8125 4.07617 11.8125H3.36523C3.26367 11.8125 3.1875 11.7871 3.13672 11.7363C3.08594 11.6855 3.06055 11.6094 3.06055 11.5078V2.74805L1.08008 4.80469C1.0293 4.88086 0.953125 4.90625 0.876953 4.90625C0.775391 4.90625 0.699219 4.88086 0.648438 4.80469L0.166016 4.29688Z" fill="#2BBD4B"/>
</svg>
